{"title":"Afganistan.PDTV.S01E02","uid":6336637,"size":234982150,"categoryP":"video","categoryS":"tv_shows","magnet":"?xt=urn:btih:6f152a1c973353d9b7871341797630dadcdd811e&amp;dn=Afganistan.PDTV.S01E02&amp;tr=udp%3A%2F%2Ftracker.openbittorrent.com%3A80&amp;tr=udp%3A%2F%2Fopen.demonii.com%3A1337&amp;tr=udp%3A%2F%2Ftracker.coppersurfer.tk%3A6969&amp;tr=udp%3A%2F%2Fexodus.desync.com%3A6969","seeders":1,"leechers":0,"uploader":"alppari","files":1,"time":1303493780,"description":"2. Jakso: Jalkapartio. Komennus Afganistanissa on alkanut. JÃƒÂ¤ÃƒÂ¤kÃƒÂ¤rit ovat partiotukikohdassa Ali Zayissa ja on aika tehdÃƒÂ¤ jalkapartio lÃƒÂ¤heiseen kylÃƒÂ¤ÃƒÂ¤n.\n\n\nRelease name: Afganistan.PDTV.S01E02\nFormat : AVI\nFormat/Info : Audio Video Interleave\nFile size : 224 MiB\nDuration : 22mn 19s\nOverall bit rate : 1 404 Kbps\nWriting application : Lavf52.31.0\n\nVideo\nID : 0\nFormat : xvid\nCodec ID : xvid\nDuration : 22mn 19s\nBit rate : 1 167 Kbps\nWidth : 640 pixels\nHeight : 352 pixels\nDisplay aspect ratio : 16:9\nFrame rate : 25.000 fps\nBits/(Pixel*Frame) : 0.207\nStream size : 186 MiB (83%)\n\nAudio\nID : 1\nFormat : MPEG Audio\nFormat version : Version 1\nFormat profile : Layer 2\nCodec ID : 50\nDuration : 22mn 19s\nBit rate mode : Constant\nBit rate : 224 Kbps\nChannel(s) : 2 channels\nSampling rate : 48.0 KHz\nCompression mode : Lossy\nStream size : 35.8 MiB (16%)\nAlignment : Aligned on interleaves\nInterleave, duration : 24 ms (0.60 video frame","torrent":{"xt":"urn:btih:6f152a1c973353d9b7871341797630dadcdd811e","amp;dn":"Afganistan.PDTV.S01E02","amp;tr":["udp%3A%2F%2Ftracker.openbittorrent.com%3A80","udp%3A%2F%2Fopen.demonii.com%3A1337","udp%3A%2F%2Ftracker.coppersurfer.tk%3A6969","udp%3A%2F%2Fexodus.desync.com%3A6969"],"infoHash":"6f152a1c973353d9b7871341797630dadcdd811e","infoHashBuffer":{"type":"Buffer","data":[111,21,42,28,151,51,83,217,183,135,19,65,121,118,48,218,220,221,129,30]},"announce":[],"urlList":[]}}